# xmcd
#
# Track frame offsets:
#	150
#	12767
#	29022
#	47905
#	70222
#	85027
#	101062
#	119965
#	137162
#	154865
#	171387
#	187347
#	204720
#
# Disc length: 2913 seconds
#
# Revision: 1
# Processed by: cddbd v1.4b42PL0 Copyright (c) Steve Scherf et al.
# Submitted via: audiograbber 1.80
#
DISCID=c70b5f0d
DTITLE=The Everys - Everyone
DYEAR=1900
DGENRE=
TTITLE0=Eyes for the Blind
TTITLE1=Other Voices
TTITLE2=I Can't Breathe
TTITLE3=Gravy Train
TTITLE4=This Town
TTITLE5=Working on You
TTITLE6=Stranger You Are
TTITLE7=Kisses of Regret
TTITLE8=Must have been a Dream
TTITLE9=Don't Blame the Weather
TTITLE10=Paved with Gold
TTITLE11=Save Me
TTITLE12=Guilty
EXTD=
EXTT0=
EXTT1=
EXTT2=
EXTT3=
EXTT4=
EXTT5=
EXTT6=
EXTT7=
EXTT8=
EXTT9=
EXTT10=
EXTT11=
EXTT12=
PLAYORDER=
